<svg width="16" height="16" viewBox="0 0 16 16" fill="none" xmlns="http://www.w3.org/2000/svg">
<mask id="mask0_0_1900" style="mask-type:luminance" maskUnits="userSpaceOnUse" x="2" y="4" width="12" height="8">
<rect x="2.66663" y="4" width="10.6667" height="8" fill="white"/>
</mask>
<g mask="url(#mask0_0_1900)">
<path fill-rule="evenodd" clip-rule="evenodd" d="M2.66663 4H13.3333V12H2.66663V4Z" fill="#E31D1C"/>
<path d="M13.3336 11.3336V11.9997H2.66663V11.3336H13.3336ZM13.3336 10.6667H2.66663V9.99966H13.3336V10.6667ZM13.3336 9.33365H2.66663V8.66666H13.3336V9.33365ZM13.3336 7.99966H2.66663V7.33365H13.3336V7.99966ZM13.3336 6.66666H2.66663V5.99966H13.3336V6.66666ZM13.3336 5.33365H2.66663V4.66666H13.3336V5.33365Z" fill="#F7FCFF"/>
<rect x="2.66663" y="4" width="6" height="4.66667" fill="#2E42A5"/>
<path d="M7.87354 4.73373H8.22314L7.94873 5.01108L8.05518 5.44955L7.71338 5.20346L7.43018 5.40073H7.55713L7.28174 5.67807L7.37646 6.06674H7.57568L7.7124 5.70932L7.87354 6.06674H8.22314L7.94873 6.34506L8.05518 6.78256L7.71338 6.53647L7.43018 6.73373H7.55713L7.28174 7.01108L7.37646 7.40073H7.57568L7.7124 7.0433L7.87354 7.40073H8.22314L7.94873 7.67807L8.05518 8.11557L7.71338 7.86948L7.35986 8.11557L7.479 7.67807L7.16553 7.40073H7.3208L7.04639 7.20346L6.76416 7.40073H6.89014L6.61572 7.67807L6.72217 8.11557L6.38037 7.86948L6.02686 8.11557L6.146 7.67807L5.83252 7.40073H5.98779L5.71338 7.20346L5.43018 7.40073H5.55713L5.28174 7.67807L5.38818 8.11557L5.04639 7.86948L4.69385 8.11557L4.81299 7.67807L4.49854 7.40073H4.65479L4.38037 7.20346L4.09717 7.40073H4.22314L3.94873 7.67807L4.05518 8.11557L3.71338 7.86948L3.35986 8.11557L3.479 7.67807L3.16553 7.40073H3.57568L3.7124 7.0433L3.87354 7.40073H4.04053L4.146 7.01108L3.83252 6.73373H3.98779L3.71338 6.53647L3.35986 6.78256L3.479 6.34506L3.16553 6.06674H3.57568L3.7124 5.70932L3.87354 6.06674H4.04053L4.146 5.67807L3.83252 5.40073H3.98779L3.71338 5.20346L3.35986 5.44955L3.479 5.01108L3.16553 4.73373H3.57568L3.7124 4.37631L3.87354 4.73373H4.22314L3.94873 5.01108L4.04346 5.40073H4.2417L4.37939 5.0433L4.54053 5.40073H4.70752L4.81299 5.01108L4.49854 4.73373H4.90869L5.04639 4.37631L5.20752 4.73373H5.55713L5.28174 5.01108L5.37646 5.40073H5.57568L5.7124 5.0433L5.87354 5.40073H6.04053L6.146 5.01108L5.83252 4.73373H6.2417L6.37939 4.37631L6.54053 4.73373H6.89014L6.61572 5.01108L6.71045 5.40073H6.90869L7.04639 5.0433L7.20752 5.40073H7.37354L7.479 5.01108L7.16553 4.73373H7.57568L7.7124 4.37631L7.87354 4.73373ZM6.09717 6.73373H6.22314L5.94873 7.01108L6.04346 7.40073H6.2417L6.37939 7.0433L6.54053 7.40073H6.70752L6.81299 7.01108L6.49854 6.73373H6.65479L6.38037 6.53647L6.09717 6.73373ZM4.76416 6.73373H4.89014L4.61572 7.01108L4.71045 7.40073H4.90869L5.04639 7.0433L5.20752 7.40073H5.37354L5.479 7.01108L5.16553 6.73373H5.3208L5.04639 6.53647L4.76416 6.73373ZM6.76416 6.06674H6.89014L6.61572 6.34506L6.71045 6.73373H6.90869L7.04639 6.37631L7.20752 6.73373H7.37354L7.479 6.34506L7.16553 6.06674H7.3208L7.04639 5.86948L6.76416 6.06674ZM4.09717 6.06674H4.22314L3.94873 6.34506L4.04346 6.73373H4.2417L4.37939 6.37631L4.54053 6.73373H4.70752L4.81299 6.34506L4.49854 6.06674H4.65479L4.38037 5.86948L4.09717 6.06674ZM5.43018 6.06674H5.55713L5.28174 6.34506L5.37646 6.73373H5.57568L5.7124 6.37631L5.87354 6.73373H6.04053L6.146 6.34506L5.83252 6.06674H5.98779L5.71338 5.86948L5.43018 6.06674ZM4.76416 5.40073H4.89014L4.61572 5.67807L4.71045 6.06674H4.90869L5.04639 5.70932L5.20752 6.06674H5.37354L5.479 5.67807L5.16553 5.40073H5.3208L5.04639 5.20346L4.76416 5.40073ZM6.09717 5.40073H6.22314L5.94873 5.67807L6.04346 6.06674H6.2417L6.37939 5.70932L6.54053 6.06674H6.70752L6.81299 5.67807L6.49854 5.40073H6.65479L6.38037 5.20346L6.09717 5.40073Z" fill="#F7FCFF"/>
</g>
</svg>
